<svg xmlns="http://www.w3.org/2000/svg" viewBox="0 0 300 300">
  <!-- Cercle rouge de fond -->
  <circle cx="150" cy="150" r="150" fill="#E4284D"/>
  
  <!-- Texte "fefangni" -->
  <text
    x="150"
    y="200"
    fill="white"
    font-family="Arial, sans-serif"
    font-size="45"
    text-anchor="middle"
    font-weight="300"
  >fefangni</text>
  
  <!-- Icône du sac -->
  <g transform="translate(110, 80)" fill="white">
    <!-- Corps du sac -->
    <path d="M80 22H20c-1.1 0-2 0.9-2 2v54c0 1.1 0.9 2 2 2h60c1.1 0 2-0.9 2-2V24c0-1.1-0.9-2-2-2zM20 78V24h60v54H20z"/>
    
    <!-- Anses du sac -->
    <path d="M64 22c0-7.7-6.3-14-14-14H50c-7.7 0-14 6.3-14 14h-4c0-9.9 8.1-18 18-18h0c9.9 0 18 8.1 18 18H64z"/>
    
    <!-- Point décoratif -->
    <circle cx="35" cy="45" r="4"/>
  </g>
</svg>